<svg width="138" height="72" viewBox="0 0 138 72" fill="none" xmlns="http://www.w3.org/2000/svg">
<g clip-path="url(#clip0_2001_1050)">
<path d="M62.045 32.8226L61.8867 32.7476L61.57 32.5976L61.3904 32.9L61.3581 32.9545C60.6918 34.0733 58.1917 38.0009 53.9714 41.5841C50.7137 44.3494 47.259 46.2286 43.6531 47.2062C43.8539 45.6672 44.0579 44.1291 44.2706 42.5909L44.5274 40.7519L44.5912 40.3073L44.6621 39.8478L44.8046 38.9279L44.9472 38.0088L45.1024 37.1055L45.4174 35.302C45.6458 34.0947 45.8703 32.8866 46.1232 31.6832C46.3634 30.4775 46.6344 29.2765 46.899 28.0739L47.3125 26.2736L47.7442 24.4772C48.0372 23.2809 48.3381 22.0855 48.6508 20.8931C48.9627 19.7008 49.2919 18.514 49.6243 17.328C49.9607 16.1468 50.3072 14.9553 50.664 13.7985L50.2474 13.6406L47.1385 14.5636C46.6604 15.5948 46.1744 16.6277 45.6852 17.6534C44.9125 19.2768 44.1257 20.8955 43.3285 22.5087C41.732 25.7335 40.0944 28.9361 38.4025 32.108C37.555 33.6928 36.7035 35.2751 35.8229 36.8401L34.4918 39.1813C34.0428 39.9583 33.5852 40.7298 33.1244 41.4996C32.3052 42.8712 31.4624 44.227 30.6094 45.574C30.1612 45.3443 29.7099 45.1074 29.2546 44.8689C25.8267 43.0678 22.2822 41.2067 18.1218 41.2067C15.3783 41.2067 12.6979 42.0168 9.92615 43.6845C6.399 45.8062 3.28379 49.1936 2.40003 50.536L2.39531 50.5423L2.39137 50.5486L2.33623 50.6434L2.19682 50.885L2.38113 51.0926L2.48904 51.215L2.78993 51.5569L3.07742 51.2032L3.11996 51.1511C3.93755 50.1262 5.68537 48.5572 8.13973 47.2314C10.0664 46.1899 13.1067 44.9479 16.6441 44.9479C19.9531 44.9479 23.084 46.0257 25.9511 48.1498C26.6396 48.6598 27.3319 49.1234 28.0251 49.5474C27.8029 49.8814 27.5832 50.217 27.3587 50.5494C26.371 52.0323 25.3533 53.4907 24.3325 54.9396C23.2951 56.3759 22.2602 57.8075 21.1677 59.1822C20.6179 59.8652 20.0736 60.5514 19.5041 61.2099C18.9307 61.8693 18.362 62.5081 17.75 63.1366L17.3176 63.5677C17.1648 63.7106 17.0143 63.8591 16.8591 63.9989C16.5496 64.28 16.2345 64.554 15.9116 64.8137C15.2681 65.3372 14.5962 65.8165 13.8936 66.2216C12.4955 67.0444 10.9722 67.5916 9.42441 67.684C8.65171 67.7266 7.87429 67.6556 7.12443 67.4471C6.37694 67.2363 5.64914 66.9133 4.97963 66.468C4.30854 66.0258 3.69731 65.466 3.16485 64.8256C2.62373 64.1907 2.15743 63.4722 1.77621 62.7007C1.00666 61.1594 0.551391 59.4238 0.37653 57.6362H0.0661913C-0.109457 59.4594 0.0551639 61.3537 0.648274 63.1619C0.944435 64.0644 1.34851 64.9448 1.86994 65.77C2.3961 66.5912 3.04119 67.3531 3.80522 68.0061C4.56689 68.6584 5.44435 69.2071 6.40451 69.5775C7.36231 69.9541 8.39021 70.1594 9.41889 70.2084C10.4492 70.2597 11.4786 70.1468 12.4648 69.9107C13.4501 69.6714 14.3993 69.3248 15.2925 68.8913C16.1889 68.461 17.0324 67.9501 17.8335 67.3942C18.2352 67.117 18.6204 66.8201 19 66.5193C19.1891 66.3685 19.3726 66.2121 19.5593 66.0582L20.1193 65.5686C20.8116 64.9495 21.4796 64.2721 22.1262 63.6025C22.7713 62.925 23.3999 62.238 24.004 61.5329C25.2084 60.1211 26.3584 58.6753 27.4359 57.1845C28.5252 55.7024 29.5413 54.1753 30.5345 52.6387C30.8268 52.1792 31.1143 51.7172 31.4002 51.2545C33.6151 52.1484 35.841 52.6008 38.0591 52.6008C38.5632 52.6008 39.0673 52.5747 39.5714 52.5282C39.3713 53.9858 39.1752 55.4442 38.9901 56.905C38.8326 58.1415 38.6829 59.3788 38.538 60.6177C38.3938 61.8574 38.2607 63.0995 38.13 64.3439C38.0039 65.5891 37.8834 66.8367 37.7834 68.0922L37.7566 68.4388L41.001 71.9842L41.3161 71.9984C41.331 71.3809 41.3381 70.7461 41.3673 70.1602L41.4051 69.2616L41.4563 68.3472C41.5256 67.1273 41.6162 65.9026 41.7138 64.6771C41.8147 63.4509 41.9289 62.2246 42.0486 60.9975C42.1707 59.7697 42.2967 58.5426 42.433 57.3148C42.633 55.49 42.8481 53.6652 43.0702 51.8404C44.7361 51.3335 46.3933 50.5754 48.0309 49.5695C50.6349 47.9689 53.1932 45.7422 55.6366 42.9486C59.7852 38.2054 62.2033 33.3927 62.2269 33.3445L62.4034 32.99L62.0458 32.821L62.045 32.8226ZM43.9933 27.7651C43.9965 27.7588 43.9996 27.7525 44.002 27.747C43.9902 27.8015 43.9736 27.8741 43.9563 27.957C43.9689 27.8907 43.9815 27.8267 43.9933 27.7651ZM66.552 66.9449C67.4176 67.4589 68.8921 68.0369 70.3028 68.0369C72.3224 68.0369 73.2833 67.0412 73.2833 65.7234C73.2833 64.4055 72.4815 63.6672 70.4296 62.8958C67.609 61.8669 66.2952 60.3248 66.2952 58.4937C66.2952 55.9874 68.3463 53.9313 71.6481 53.9313C73.2188 53.9313 74.5972 54.349 75.4313 54.8946L74.7578 56.9192C74.149 56.5654 73.0274 56.019 71.5851 56.019C69.9177 56.019 69.0205 56.9832 69.0205 58.1399C69.0205 59.4254 69.9177 60.0034 71.9372 60.8072C74.5979 61.8029 76.0079 63.1524 76.0079 65.4667C76.0079 68.2304 73.8607 70.1586 70.2382 70.1586C68.5392 70.1586 66.9687 69.7085 65.8785 69.0658L66.552 66.9449ZM81.0079 62.5744C81.0725 66.3661 83.4765 67.9406 86.2971 67.9406C88.3167 67.9406 89.5667 67.5869 90.5922 67.1368L91.105 69.1613C90.111 69.6114 88.3805 70.1578 85.9119 70.1578C81.1686 70.1578 78.2826 66.9765 78.2826 62.3178C78.2826 57.6591 81.0725 53.9305 85.5913 53.9305C90.656 53.9305 91.9698 58.3973 91.9698 61.2565C91.9698 61.8353 91.9383 62.253 91.8737 62.5736H81.0071L81.0079 62.5744ZM89.2461 60.5506C89.2784 58.7511 88.5089 55.9551 85.3669 55.9551C82.4817 55.9551 81.2639 58.59 81.0394 60.5506H89.2453H89.2461ZM96.8423 62.5744C96.9069 66.3661 99.3109 67.9406 102.131 67.9406C104.151 67.9406 105.401 67.5869 106.427 67.1368L106.939 69.1613C105.946 69.6114 104.215 70.1578 101.747 70.1578C97.003 70.1578 94.1178 66.9765 94.1178 62.3178C94.1178 57.6591 96.9069 53.9305 101.427 53.9305C106.491 53.9305 107.805 58.3973 107.805 61.2565C107.805 61.8353 107.773 62.253 107.71 62.5736H96.8431L96.8423 62.5744ZM105.08 60.5506C105.113 58.7511 104.343 55.9551 101.202 55.9551C98.3168 55.9551 97.0991 58.59 96.8746 60.5506H105.08ZM128.544 66.9449C129.41 67.4589 130.884 68.0369 132.294 68.0369C134.314 68.0369 135.276 67.0412 135.276 65.7234C135.276 64.4055 134.474 63.6672 132.423 62.8958C129.602 61.8669 128.288 60.3248 128.288 58.4937C128.288 55.9874 130.339 53.9313 133.641 53.9313C135.212 53.9313 136.59 54.349 137.423 54.8946L136.75 56.9192C136.141 56.5654 135.02 56.019 133.577 56.019C131.91 56.019 131.013 56.9832 131.013 58.1399C131.013 59.4254 131.91 60.0034 133.929 60.8072C136.59 61.8029 138.001 63.1524 138.001 65.4667C138.001 68.2304 135.853 70.1586 132.23 70.1586C130.531 70.1586 128.961 69.7085 127.871 69.0658L128.544 66.9449ZM52.2559 49.759C53.2074 49.0207 54.1494 48.2098 55.0765 47.3278V69.8365H52.2559V49.7582V49.759ZM59.5961 42.3335C60.7083 40.9193 61.6559 39.569 62.4167 38.4083V69.8365H59.5961V42.3335ZM124.473 39.4182L121.713 35.6186H121.652V56.2764H121.588C120.915 55.0549 119.312 53.9313 116.908 53.9313C113.157 53.9313 109.92 57.0803 109.952 62.2862C109.952 67.0096 112.869 70.191 116.62 70.191C119.152 70.191 121.011 68.8731 121.876 67.1376H121.94L122.069 69.8372H124.601C124.505 68.7768 124.473 67.2023 124.473 65.8213V39.419V39.4182ZM121.652 63.3143C121.652 63.7643 121.621 64.1497 121.524 64.5034C121.011 66.6243 119.28 67.9098 117.389 67.9098C114.376 67.9098 112.805 65.3065 112.805 62.1251C112.805 58.7187 114.536 56.1485 117.453 56.1485C119.57 56.1485 121.108 57.6267 121.524 59.3938C121.621 59.7792 121.652 60.2292 121.652 60.6146V63.3143Z" fill="#4BA030"/>
<path d="M35.233 44.6091C35.1148 45.7786 35.7938 46.9488 36.9903 47.3546C38.5097 47.8694 40.1283 46.9038 40.4 45.3198C40.8427 42.7417 41.3129 40.1257 41.7509 37.7466C41.9785 36.5117 42.1967 35.3407 42.3976 34.2723C42.8197 32.029 43.52 28.4213 43.52 28.4213C43.4585 28.5626 43.3947 28.7079 43.3286 28.8548C41.5855 32.7713 38.4025 38.5852 35.5614 43.5763C35.3732 43.9064 35.2684 44.2578 35.233 44.6091Z" fill="#FFD03D"/>
</g>
<defs>
<clipPath id="clip0_2001_1050">
<rect width="138" height="72" fill="white"/>
</clipPath>
</defs>
</svg>
